<svg width="33" height="33" viewBox="0 0 33 33" fill="none" xmlns="http://www.w3.org/2000/svg">
<path d="M15.125 27.5C14.7354 27.5 14.4088 27.3682 14.1453 27.1047C13.8818 26.8411 13.75 26.5146 13.75 26.125V17.875L5.77499 7.7C5.43124 7.24167 5.37968 6.76042 5.6203 6.25625C5.86093 5.75208 6.27916 5.5 6.87499 5.5H26.125C26.7208 5.5 27.1391 5.75208 27.3797 6.25625C27.6203 6.76042 27.5687 7.24167 27.225 7.7L19.25 17.875V26.125C19.25 26.5146 19.1182 26.8411 18.8547 27.1047C18.5911 27.3682 18.2646 27.5 17.875 27.5H15.125ZM16.5 16.9125L23.3062 8.25H9.69374L16.5 16.9125Z" fill="white"/>
</svg>
